<?xml version="1.0" encoding="UTF-8"?><!DOCTYPE svg PUBLIC "-//W3C//DTD SVG 1.1//EN" "http://www.w3.org/Graphics/SVG/1.1/DTD/svg11.dtd"><svg xmlns="http://www.w3.org/2000/svg" xmlns:xlink="http://www.w3.org/1999/xlink" version="1.1" width="50.796mm" height="48.0191mm" viewBox="-6 -7 12 11.344"><defs/><g><g id="cell-2spds-ZZJgX_ncO4wF2y-5" layer="Symbol"><path fill="none" stroke="rgb(0, 0, 0)" d="M0-0.6400000303983688L1.2800000607967377-0.6400000303983688 1.2800000607967377 0.6400000303983688 0 0.6400000303983688z" stroke-width="0.25" stroke-linecap="round" stroke-linejoin="round"/></g><g id="cell-2spds-ZZJgX_ncO4wF2y-3" content="&lt;object label=&quot;Connection&quot; PipingConnector=&quot;Y&quot; LabelConnector=&quot;N&quot; SignalConnector=&quot;N&quot; Direction=&quot;180&quot; AuxiliaryConnector=&quot;N&quot;/&gt;" data-label="Connection" data-PipingConnector="Y" data-LabelConnector="N" data-SignalConnector="N" data-Direction="180" data-AuxiliaryConnector="N" layer="Connection"><ellipse cx="0" cy="0" rx="0.375" ry="0.375" fill="none" stroke="#00ff00" stroke-width="0.05"/><ellipse cx="-0.375" cy="4.5924253663221344e-17" rx="0.04" ry="0.04" fill="#0000ff" stroke="none" stroke-width="0.05"/></g><g id="cell-2spds-ZZJgX_ncO4wF2y-1" content="&lt;object label=&quot;origo&quot;/&gt;" data-label="origo" layer="Origo"><ellipse cx="0" cy="0" rx="0.25" ry="0.25" fill="none" stroke="#ff0000" stroke-width="0.05"/></g></g><g layer="Dimension"><text font-size="40px" font-family="Arial" text-anchor="middle" fill="#777777" stroke-linecap="round" stroke-linejoin="round" transform="matrix(0.0188976 0 0 0.0188976 3.78 -3.772)">W: 1.28</text><path d="M-1,-3.6720000505447388 5.28000009059906,-3.6720000505447388 M0,-3.6720000505447388 -0.7,-4.022000050544738 M0,-3.6720000505447388 -0.7,-3.3220000505447387 M1.28000009059906,-3.6720000505447388 1.98000009059906,-4.022000050544738 M1.28000009059906,-3.6720000505447388 1.98000009059906,-3.3220000505447387 M0,-3.272000050544739 0,-4.072000050544739 M1.28000009059906,-3.272000050544739 1.28000009059906,-4.072000050544739" stroke="#777777" stroke-width="0.05" stroke-linecap="round" stroke-linejoin="round"/><text font-size="40px" font-family="Arial" text-anchor="middle" fill="#777777" transform="matrix(1.15715e-18 -0.0188976 0.0188976 1.15715e-18 -3.516 -3.14)" stroke-linecap="round" stroke-linejoin="round">H: 1.28</text><path d="M-3.4159998893737797-4.64000016450882L-3.4159998893737793 1.6399999260902405M-3.4159998893737793-0.6400001645088196L-3.0659998893737797-1.3400001645088198M-3.4159998893737793-0.6400001645088196L-3.7659998893737794-1.3400001645088198M-3.4159998893737793 0.6399999260902405L-3.0659998893737797 1.3399999260902404M-3.4159998893737793 0.6399999260902405L-3.7659998893737794 1.3399999260902404M-3.8159998893737797-0.6400001645088196L-3.01599988937378-0.6400001645088196M-3.815999889373779 0.6399999260902405L-3.01599988937378 0.6399999260902405" stroke="#777777" stroke-width="0.05" stroke-linecap="round" stroke-linejoin="round"/></g><g layer="SymbolRegistrationNumber"><text font-size="40px" font-family="Arial" text-anchor="start" fill="#000000" stroke-width="0.05" stroke-linecap="round" stroke-linejoin="round" transform="matrix(0.0188976 0 0 0.0188976 -5 -4.66514)">ND0026 - Option 1</text></g><g layer="Grid"><g layer="Grid_micro"><path d="M-6,-7 6,-7" fill="none" stroke="rgb(216, 216, 216)" stroke-opacity="0.5" stroke-width="0.0125" stroke-linecap="round" stroke-linejoin="round"/><path d="M-6,-6 6,-6" fill="none" stroke="rgb(216, 216, 216)" stroke-opacity="0.5" stroke-width="0.0125" stroke-linecap="round" stroke-linejoin="round"/><path d="M-6,-5 6,-5" fill="none" stroke="rgb(216, 216, 216)" stroke-opacity="0.5" stroke-width="0.0125" stroke-linecap="round" stroke-linejoin="round"/><path d="M-6,-4 6,-4" fill="none" stroke="rgb(216, 216, 216)" stroke-opacity="0.5" stroke-width="0.0125" stroke-linecap="round" stroke-linejoin="round"/><path d="M-6,-3 6,-3" fill="none" stroke="rgb(216, 216, 216)" stroke-opacity="0.5" stroke-width="0.0125" stroke-linecap="round" stroke-linejoin="round"/><path d="M-6,-2 6,-2" fill="none" stroke="rgb(216, 216, 216)" stroke-opacity="0.5" stroke-width="0.0125" stroke-linecap="round" stroke-linejoin="round"/><path d="M-6,-1 6,-1" fill="none" stroke="rgb(216, 216, 216)" stroke-opacity="0.5" stroke-width="0.0125" stroke-linecap="round" stroke-linejoin="round"/><path d="M-6,0 6,0" fill="none" stroke="rgb(216, 216, 216)" stroke-opacity="0.5" stroke-width="0.0125" stroke-linecap="round" stroke-linejoin="round"/><path d="M-6,1 6,1" fill="none" stroke="rgb(216, 216, 216)" stroke-opacity="0.5" stroke-width="0.0125" stroke-linecap="round" stroke-linejoin="round"/><path d="M-6,2 6,2" fill="none" stroke="rgb(216, 216, 216)" stroke-opacity="0.5" stroke-width="0.0125" stroke-linecap="round" stroke-linejoin="round"/><path d="M-6,3 6,3" fill="none" stroke="rgb(216, 216, 216)" stroke-opacity="0.5" stroke-width="0.0125" stroke-linecap="round" stroke-linejoin="round"/><path d="M-6,4 6,4" fill="none" stroke="rgb(216, 216, 216)" stroke-opacity="0.5" stroke-width="0.0125" stroke-linecap="round" stroke-linejoin="round"/><path d="M-6,-7 -6,4.343999862670898" fill="none" stroke="rgb(216, 216, 216)" stroke-opacity="0.5" stroke-width="0.0125" stroke-linecap="round" stroke-linejoin="round"/><path d="M-5,-7 -5,4.343999862670898" fill="none" stroke="rgb(216, 216, 216)" stroke-opacity="0.5" stroke-width="0.0125" stroke-linecap="round" stroke-linejoin="round"/><path d="M-4,-7 -4,4.343999862670898" fill="none" stroke="rgb(216, 216, 216)" stroke-opacity="0.5" stroke-width="0.0125" stroke-linecap="round" stroke-linejoin="round"/><path d="M-3,-7 -3,4.343999862670898" fill="none" stroke="rgb(216, 216, 216)" stroke-opacity="0.5" stroke-width="0.0125" stroke-linecap="round" stroke-linejoin="round"/><path d="M-2,-7 -2,4.343999862670898" fill="none" stroke="rgb(216, 216, 216)" stroke-opacity="0.5" stroke-width="0.0125" stroke-linecap="round" stroke-linejoin="round"/><path d="M-1,-7 -1,4.343999862670898" fill="none" stroke="rgb(216, 216, 216)" stroke-opacity="0.5" stroke-width="0.0125" stroke-linecap="round" stroke-linejoin="round"/><path d="M0,-7 0,4.343999862670898" fill="none" stroke="rgb(216, 216, 216)" stroke-opacity="0.5" stroke-width="0.0125" stroke-linecap="round" stroke-linejoin="round"/><path d="M1,-7 1,4.343999862670898" fill="none" stroke="rgb(216, 216, 216)" stroke-opacity="0.5" stroke-width="0.0125" stroke-linecap="round" stroke-linejoin="round"/><path d="M2,-7 2,4.343999862670898" fill="none" stroke="rgb(216, 216, 216)" stroke-opacity="0.5" stroke-width="0.0125" stroke-linecap="round" stroke-linejoin="round"/><path d="M3,-7 3,4.343999862670898" fill="none" stroke="rgb(216, 216, 216)" stroke-opacity="0.5" stroke-width="0.0125" stroke-linecap="round" stroke-linejoin="round"/><path d="M4,-7 4,4.343999862670898" fill="none" stroke="rgb(216, 216, 216)" stroke-opacity="0.5" stroke-width="0.0125" stroke-linecap="round" stroke-linejoin="round"/><path d="M5,-7 5,4.343999862670898" fill="none" stroke="rgb(216, 216, 216)" stroke-opacity="0.5" stroke-width="0.0125" stroke-linecap="round" stroke-linejoin="round"/></g><g layer="Grid_minor"><path d="M-6,-5 6,-5" fill="none" stroke="#7f7f7f" stroke-opacity="0.2" stroke-width="0.025" stroke-dasharray="0.1, 0.2" stroke-linecap="round" stroke-linejoin="round"/><path d="M-6,0 6,0" fill="none" stroke="#7f7f7f" stroke-opacity="0.2" stroke-width="0.025" stroke-dasharray="0.1, 0.2" stroke-linecap="round" stroke-linejoin="round"/><path d="M-5,-7 -5,4.343999862670898" fill="none" stroke="#7f7f7f" stroke-opacity="0.2" stroke-width="0.025" stroke-dasharray="0.1, 0.2" stroke-linecap="round" stroke-linejoin="round"/><path d="M0,-7 0,4.343999862670898" fill="none" stroke="#7f7f7f" stroke-opacity="0.2" stroke-width="0.025" stroke-dasharray="0.1, 0.2" stroke-linecap="round" stroke-linejoin="round"/><path d="M5,-7 5,4.343999862670898" fill="none" stroke="#7f7f7f" stroke-opacity="0.2" stroke-width="0.025" stroke-dasharray="0.1, 0.2" stroke-linecap="round" stroke-linejoin="round"/></g><g layer="Grid_major"><path d="M-6,0 6,0" fill="none" stroke="#0f0f0f" stroke-opacity="0.2" stroke-width="0.05" stroke-linecap="round" stroke-linejoin="round"/><path d="M0,-7 0,4.343999862670898" fill="none" stroke="#0f0f0f" stroke-opacity="0.2" stroke-width="0.05" stroke-linecap="round" stroke-linejoin="round"/></g></g></svg>