<?xml version="1.0" encoding="UTF-8"?><!DOCTYPE svg PUBLIC "-//W3C//DTD SVG 1.1//EN" "http://www.w3.org/Graphics/SVG/1.1/DTD/svg11.dtd"><svg xmlns="http://www.w3.org/2000/svg" xmlns:xlink="http://www.w3.org/1999/xlink" version="1.1" width="331.232mm" height="197.364mm" viewBox="-40.0625 -42.0625 78.25 46.625"><defs/><g><g id="cell-m6T33e_Z8T_IFA4XhIIA-16" layer="Symbol"><path d="M32 0L35 0" fill="none" stroke="rgb(0, 0, 0)" stroke-miterlimit="10" stroke-width="0.25" stroke-linecap="round" stroke-linejoin="round"/></g><g id="cell-m6T33e_Z8T_IFA4XhIIA-8" layer="Symbol"><path d="M-35 0L-32 0" fill="none" stroke="rgb(0, 0, 0)" stroke-miterlimit="10" stroke-width="0.25" stroke-linecap="round" stroke-linejoin="round"/></g><g id="cell-m6T33e_Z8T_IFA4XhIIA-4" layer="Symbol"><path fill="none" stroke="rgb(0, 0, 0)" d="M-32-36L32-36 32 0-32 0z" stroke-width="0.25" stroke-linecap="round" stroke-linejoin="round"/></g><g id="cell-MAk1VC-pqEa6ilZfhNB5-16" content="&lt;object label=&quot;%LabelLines%&amp;amp;nbsp; &amp;amp;nbsp; &amp;amp;nbsp; &amp;amp;nbsp; &amp;amp;nbsp; &amp;amp;nbsp;%LabelIndex%&quot; placeholders=&quot;1&quot; LabelLines=&quot;1&quot; LabelIndex=&quot;A&quot;/&gt;" data-label="%LabelLines%&amp;nbsp; &amp;nbsp; &amp;nbsp; &amp;nbsp; &amp;nbsp; &amp;nbsp;%LabelIndex%" data-placeholders="1" data-LabelLines="1" data-LabelIndex="A" layer="Label"><path fill="none" stroke="#ff0000" d="M-5-19L5-19 5-17-5-17z" stroke-width="0.05" stroke-linecap="round" stroke-linejoin="round"/><g><text fill="#FF0000" font-family="Helvetica" font-size="40px" transform="matrix(0.03125 0 0 0.03125 -4.8125 -17.6875)" stroke-width="0.05" stroke-linecap="round" stroke-linejoin="round">1           A</text></g></g><g id="cell-pEtjtcBWMfalJ67Uv4dw-28" content="&lt;object label=&quot;origo&quot;/&gt;" data-label="origo" layer="Origo"><ellipse cx="0" cy="0" rx="0.25" ry="0.25" fill="none" stroke="#ff0000" stroke-width="0.05"/></g></g><g layer="Dimension"><text font-size="40px" font-family="Arial" text-anchor="middle" fill="#777777" stroke-linecap="round" stroke-linejoin="round" transform="matrix(0.0188976 0 0 0.0188976 0 -39.1625)">W: 70</text><path d="M-35,-39.0625 35,-39.0625 M-35,-39.0625 -34.3,-39.4125 M-35,-39.0625 -34.3,-38.7125 M35,-39.0625 34.3,-39.4125 M35,-39.0625 34.3,-38.7125 M-35,-38.6625 -35,-39.4625 M35,-38.6625 35,-39.4625" stroke="#777777" stroke-width="0.05" stroke-linecap="round" stroke-linejoin="round"/><text font-size="40px" font-family="Arial" text-anchor="middle" fill="#777777" transform="matrix(1.15715e-18 -0.0188976 0.0188976 1.15715e-18 -38.1625 -17.8)" stroke-linecap="round" stroke-linejoin="round">H: 36</text><path d="M-38.0625-36L-38.0625-2.220446049250313e-15M-38.0625-36L-37.7125-35.3M-38.0625-36L-38.4125-35.3M-38.0625-2.220446049250313e-15L-37.7125-0.7000000000000024M-38.0625-2.220446049250313e-15L-38.4125-0.7000000000000024M-38.4625-36L-37.6625-36M-38.4625-2.220446049250313e-15L-37.6625-2.220446049250313e-15" stroke="#777777" stroke-width="0.05" stroke-linecap="round" stroke-linejoin="round"/></g><g layer="SymbolRegistrationNumber"><text font-size="40px" font-family="Arial" text-anchor="start" fill="#000000" stroke-width="0.05" stroke-linecap="round" stroke-linejoin="round" transform="matrix(0.0188976 0 0 0.0188976 -39.0625 -40.301)">PE025A - Default</text></g><g layer="Grid"><g layer="Grid_micro"><path d="M-40.0625,-42 38.1875,-42" fill="none" stroke="rgb(216, 216, 216)" stroke-opacity="0.5" stroke-width="0.0125" stroke-linecap="round" stroke-linejoin="round"/><path d="M-40.0625,-41 38.1875,-41" fill="none" stroke="rgb(216, 216, 216)" stroke-opacity="0.5" stroke-width="0.0125" stroke-linecap="round" stroke-linejoin="round"/><path d="M-40.0625,-40 38.1875,-40" fill="none" stroke="rgb(216, 216, 216)" stroke-opacity="0.5" stroke-width="0.0125" stroke-linecap="round" stroke-linejoin="round"/><path d="M-40.0625,-39 38.1875,-39" fill="none" stroke="rgb(216, 216, 216)" stroke-opacity="0.5" stroke-width="0.0125" stroke-linecap="round" stroke-linejoin="round"/><path d="M-40.0625,-38 38.1875,-38" fill="none" stroke="rgb(216, 216, 216)" stroke-opacity="0.5" stroke-width="0.0125" stroke-linecap="round" stroke-linejoin="round"/><path d="M-40.0625,-37 38.1875,-37" fill="none" stroke="rgb(216, 216, 216)" stroke-opacity="0.5" stroke-width="0.0125" stroke-linecap="round" stroke-linejoin="round"/><path d="M-40.0625,-36 38.1875,-36" fill="none" stroke="rgb(216, 216, 216)" stroke-opacity="0.5" stroke-width="0.0125" stroke-linecap="round" stroke-linejoin="round"/><path d="M-40.0625,-35 38.1875,-35" fill="none" stroke="rgb(216, 216, 216)" stroke-opacity="0.5" stroke-width="0.0125" stroke-linecap="round" stroke-linejoin="round"/><path d="M-40.0625,-34 38.1875,-34" fill="none" stroke="rgb(216, 216, 216)" stroke-opacity="0.5" stroke-width="0.0125" stroke-linecap="round" stroke-linejoin="round"/><path d="M-40.0625,-33 38.1875,-33" fill="none" stroke="rgb(216, 216, 216)" stroke-opacity="0.5" stroke-width="0.0125" stroke-linecap="round" stroke-linejoin="round"/><path d="M-40.0625,-32 38.1875,-32" fill="none" stroke="rgb(216, 216, 216)" stroke-opacity="0.5" stroke-width="0.0125" stroke-linecap="round" stroke-linejoin="round"/><path d="M-40.0625,-31 38.1875,-31" fill="none" stroke="rgb(216, 216, 216)" stroke-opacity="0.5" stroke-width="0.0125" stroke-linecap="round" stroke-linejoin="round"/><path d="M-40.0625,-30 38.1875,-30" fill="none" stroke="rgb(216, 216, 216)" stroke-opacity="0.5" stroke-width="0.0125" stroke-linecap="round" stroke-linejoin="round"/><path d="M-40.0625,-29 38.1875,-29" fill="none" stroke="rgb(216, 216, 216)" stroke-opacity="0.5" stroke-width="0.0125" stroke-linecap="round" stroke-linejoin="round"/><path d="M-40.0625,-28 38.1875,-28" fill="none" stroke="rgb(216, 216, 216)" stroke-opacity="0.5" stroke-width="0.0125" stroke-linecap="round" stroke-linejoin="round"/><path d="M-40.0625,-27 38.1875,-27" fill="none" stroke="rgb(216, 216, 216)" stroke-opacity="0.5" stroke-width="0.0125" stroke-linecap="round" stroke-linejoin="round"/><path d="M-40.0625,-26 38.1875,-26" fill="none" stroke="rgb(216, 216, 216)" stroke-opacity="0.5" stroke-width="0.0125" stroke-linecap="round" stroke-linejoin="round"/><path d="M-40.0625,-25 38.1875,-25" fill="none" stroke="rgb(216, 216, 216)" stroke-opacity="0.5" stroke-width="0.0125" stroke-linecap="round" stroke-linejoin="round"/><path d="M-40.0625,-24 38.1875,-24" fill="none" stroke="rgb(216, 216, 216)" stroke-opacity="0.5" stroke-width="0.0125" stroke-linecap="round" stroke-linejoin="round"/><path d="M-40.0625,-23 38.1875,-23" fill="none" stroke="rgb(216, 216, 216)" stroke-opacity="0.5" stroke-width="0.0125" stroke-linecap="round" stroke-linejoin="round"/><path d="M-40.0625,-22 38.1875,-22" fill="none" stroke="rgb(216, 216, 216)" stroke-opacity="0.5" stroke-width="0.0125" stroke-linecap="round" stroke-linejoin="round"/><path d="M-40.0625,-21 38.1875,-21" fill="none" stroke="rgb(216, 216, 216)" stroke-opacity="0.5" stroke-width="0.0125" stroke-linecap="round" stroke-linejoin="round"/><path d="M-40.0625,-20 38.1875,-20" fill="none" stroke="rgb(216, 216, 216)" stroke-opacity="0.5" stroke-width="0.0125" stroke-linecap="round" stroke-linejoin="round"/><path d="M-40.0625,-19 38.1875,-19" fill="none" stroke="rgb(216, 216, 216)" stroke-opacity="0.5" stroke-width="0.0125" stroke-linecap="round" stroke-linejoin="round"/><path d="M-40.0625,-18 38.1875,-18" fill="none" stroke="rgb(216, 216, 216)" stroke-opacity="0.5" stroke-width="0.0125" stroke-linecap="round" stroke-linejoin="round"/><path d="M-40.0625,-17 38.1875,-17" fill="none" stroke="rgb(216, 216, 216)" stroke-opacity="0.5" stroke-width="0.0125" stroke-linecap="round" stroke-linejoin="round"/><path d="M-40.0625,-16 38.1875,-16" fill="none" stroke="rgb(216, 216, 216)" stroke-opacity="0.5" stroke-width="0.0125" stroke-linecap="round" stroke-linejoin="round"/><path d="M-40.0625,-15 38.1875,-15" fill="none" stroke="rgb(216, 216, 216)" stroke-opacity="0.5" stroke-width="0.0125" stroke-linecap="round" stroke-linejoin="round"/><path d="M-40.0625,-14 38.1875,-14" fill="none" stroke="rgb(216, 216, 216)" stroke-opacity="0.5" stroke-width="0.0125" stroke-linecap="round" stroke-linejoin="round"/><path d="M-40.0625,-13 38.1875,-13" fill="none" stroke="rgb(216, 216, 216)" stroke-opacity="0.5" stroke-width="0.0125" stroke-linecap="round" stroke-linejoin="round"/><path d="M-40.0625,-12 38.1875,-12" fill="none" stroke="rgb(216, 216, 216)" stroke-opacity="0.5" stroke-width="0.0125" stroke-linecap="round" stroke-linejoin="round"/><path d="M-40.0625,-11 38.1875,-11" fill="none" stroke="rgb(216, 216, 216)" stroke-opacity="0.5" stroke-width="0.0125" stroke-linecap="round" stroke-linejoin="round"/><path d="M-40.0625,-10 38.1875,-10" fill="none" stroke="rgb(216, 216, 216)" stroke-opacity="0.5" stroke-width="0.0125" stroke-linecap="round" stroke-linejoin="round"/><path d="M-40.0625,-9 38.1875,-9" fill="none" stroke="rgb(216, 216, 216)" stroke-opacity="0.5" stroke-width="0.0125" stroke-linecap="round" stroke-linejoin="round"/><path d="M-40.0625,-8 38.1875,-8" fill="none" stroke="rgb(216, 216, 216)" stroke-opacity="0.5" stroke-width="0.0125" stroke-linecap="round" stroke-linejoin="round"/><path d="M-40.0625,-7 38.1875,-7" fill="none" stroke="rgb(216, 216, 216)" stroke-opacity="0.5" stroke-width="0.0125" stroke-linecap="round" stroke-linejoin="round"/><path d="M-40.0625,-6 38.1875,-6" fill="none" stroke="rgb(216, 216, 216)" stroke-opacity="0.5" stroke-width="0.0125" stroke-linecap="round" stroke-linejoin="round"/><path d="M-40.0625,-5 38.1875,-5" fill="none" stroke="rgb(216, 216, 216)" stroke-opacity="0.5" stroke-width="0.0125" stroke-linecap="round" stroke-linejoin="round"/><path d="M-40.0625,-4 38.1875,-4" fill="none" stroke="rgb(216, 216, 216)" stroke-opacity="0.5" stroke-width="0.0125" stroke-linecap="round" stroke-linejoin="round"/><path d="M-40.0625,-3 38.1875,-3" fill="none" stroke="rgb(216, 216, 216)" stroke-opacity="0.5" stroke-width="0.0125" stroke-linecap="round" stroke-linejoin="round"/><path d="M-40.0625,-2 38.1875,-2" fill="none" stroke="rgb(216, 216, 216)" stroke-opacity="0.5" stroke-width="0.0125" stroke-linecap="round" stroke-linejoin="round"/><path d="M-40.0625,-1 38.1875,-1" fill="none" stroke="rgb(216, 216, 216)" stroke-opacity="0.5" stroke-width="0.0125" stroke-linecap="round" stroke-linejoin="round"/><path d="M-40.0625,0 38.1875,0" fill="none" stroke="rgb(216, 216, 216)" stroke-opacity="0.5" stroke-width="0.0125" stroke-linecap="round" stroke-linejoin="round"/><path d="M-40.0625,1 38.1875,1" fill="none" stroke="rgb(216, 216, 216)" stroke-opacity="0.5" stroke-width="0.0125" stroke-linecap="round" stroke-linejoin="round"/><path d="M-40.0625,2 38.1875,2" fill="none" stroke="rgb(216, 216, 216)" stroke-opacity="0.5" stroke-width="0.0125" stroke-linecap="round" stroke-linejoin="round"/><path d="M-40.0625,3 38.1875,3" fill="none" stroke="rgb(216, 216, 216)" stroke-opacity="0.5" stroke-width="0.0125" stroke-linecap="round" stroke-linejoin="round"/><path d="M-40.0625,4 38.1875,4" fill="none" stroke="rgb(216, 216, 216)" stroke-opacity="0.5" stroke-width="0.0125" stroke-linecap="round" stroke-linejoin="round"/><path d="M-40,-42.0625 -40,4.5625" fill="none" stroke="rgb(216, 216, 216)" stroke-opacity="0.5" stroke-width="0.0125" stroke-linecap="round" stroke-linejoin="round"/><path d="M-39,-42.0625 -39,4.5625" fill="none" stroke="rgb(216, 216, 216)" stroke-opacity="0.5" stroke-width="0.0125" stroke-linecap="round" stroke-linejoin="round"/><path d="M-38,-42.0625 -38,4.5625" fill="none" stroke="rgb(216, 216, 216)" stroke-opacity="0.5" stroke-width="0.0125" stroke-linecap="round" stroke-linejoin="round"/><path d="M-37,-42.0625 -37,4.5625" fill="none" stroke="rgb(216, 216, 216)" stroke-opacity="0.5" stroke-width="0.0125" stroke-linecap="round" stroke-linejoin="round"/><path d="M-36,-42.0625 -36,4.5625" fill="none" stroke="rgb(216, 216, 216)" stroke-opacity="0.5" stroke-width="0.0125" stroke-linecap="round" stroke-linejoin="round"/><path d="M-35,-42.0625 -35,4.5625" fill="none" stroke="rgb(216, 216, 216)" stroke-opacity="0.5" stroke-width="0.0125" stroke-linecap="round" stroke-linejoin="round"/><path d="M-34,-42.0625 -34,4.5625" fill="none" stroke="rgb(216, 216, 216)" stroke-opacity="0.5" stroke-width="0.0125" stroke-linecap="round" stroke-linejoin="round"/><path d="M-33,-42.0625 -33,4.5625" fill="none" stroke="rgb(216, 216, 216)" stroke-opacity="0.5" stroke-width="0.0125" stroke-linecap="round" stroke-linejoin="round"/><path d="M-32,-42.0625 -32,4.5625" fill="none" stroke="rgb(216, 216, 216)" stroke-opacity="0.5" stroke-width="0.0125" stroke-linecap="round" stroke-linejoin="round"/><path d="M-31,-42.0625 -31,4.5625" fill="none" stroke="rgb(216, 216, 216)" stroke-opacity="0.5" stroke-width="0.0125" stroke-linecap="round" stroke-linejoin="round"/><path d="M-30,-42.0625 -30,4.5625" fill="none" stroke="rgb(216, 216, 216)" stroke-opacity="0.5" stroke-width="0.0125" stroke-linecap="round" stroke-linejoin="round"/><path d="M-29,-42.0625 -29,4.5625" fill="none" stroke="rgb(216, 216, 216)" stroke-opacity="0.5" stroke-width="0.0125" stroke-linecap="round" stroke-linejoin="round"/><path d="M-28,-42.0625 -28,4.5625" fill="none" stroke="rgb(216, 216, 216)" stroke-opacity="0.5" stroke-width="0.0125" stroke-linecap="round" stroke-linejoin="round"/><path d="M-27,-42.0625 -27,4.5625" fill="none" stroke="rgb(216, 216, 216)" stroke-opacity="0.5" stroke-width="0.0125" stroke-linecap="round" stroke-linejoin="round"/><path d="M-26,-42.0625 -26,4.5625" fill="none" stroke="rgb(216, 216, 216)" stroke-opacity="0.5" stroke-width="0.0125" stroke-linecap="round" stroke-linejoin="round"/><path d="M-25,-42.0625 -25,4.5625" fill="none" stroke="rgb(216, 216, 216)" stroke-opacity="0.5" stroke-width="0.0125" stroke-linecap="round" stroke-linejoin="round"/><path d="M-24,-42.0625 -24,4.5625" fill="none" stroke="rgb(216, 216, 216)" stroke-opacity="0.5" stroke-width="0.0125" stroke-linecap="round" stroke-linejoin="round"/><path d="M-23,-42.0625 -23,4.5625" fill="none" stroke="rgb(216, 216, 216)" stroke-opacity="0.5" stroke-width="0.0125" stroke-linecap="round" stroke-linejoin="round"/><path d="M-22,-42.0625 -22,4.5625" fill="none" stroke="rgb(216, 216, 216)" stroke-opacity="0.5" stroke-width="0.0125" stroke-linecap="round" stroke-linejoin="round"/><path d="M-21,-42.0625 -21,4.5625" fill="none" stroke="rgb(216, 216, 216)" stroke-opacity="0.5" stroke-width="0.0125" stroke-linecap="round" stroke-linejoin="round"/><path d="M-20,-42.0625 -20,4.5625" fill="none" stroke="rgb(216, 216, 216)" stroke-opacity="0.5" stroke-width="0.0125" stroke-linecap="round" stroke-linejoin="round"/><path d="M-19,-42.0625 -19,4.5625" fill="none" stroke="rgb(216, 216, 216)" stroke-opacity="0.5" stroke-width="0.0125" stroke-linecap="round" stroke-linejoin="round"/><path d="M-18,-42.0625 -18,4.5625" fill="none" stroke="rgb(216, 216, 216)" stroke-opacity="0.5" stroke-width="0.0125" stroke-linecap="round" stroke-linejoin="round"/><path d="M-17,-42.0625 -17,4.5625" fill="none" stroke="rgb(216, 216, 216)" stroke-opacity="0.5" stroke-width="0.0125" stroke-linecap="round" stroke-linejoin="round"/><path d="M-16,-42.0625 -16,4.5625" fill="none" stroke="rgb(216, 216, 216)" stroke-opacity="0.5" stroke-width="0.0125" stroke-linecap="round" stroke-linejoin="round"/><path d="M-15,-42.0625 -15,4.5625" fill="none" stroke="rgb(216, 216, 216)" stroke-opacity="0.5" stroke-width="0.0125" stroke-linecap="round" stroke-linejoin="round"/><path d="M-14,-42.0625 -14,4.5625" fill="none" stroke="rgb(216, 216, 216)" stroke-opacity="0.5" stroke-width="0.0125" stroke-linecap="round" stroke-linejoin="round"/><path d="M-13,-42.0625 -13,4.5625" fill="none" stroke="rgb(216, 216, 216)" stroke-opacity="0.5" stroke-width="0.0125" stroke-linecap="round" stroke-linejoin="round"/><path d="M-12,-42.0625 -12,4.5625" fill="none" stroke="rgb(216, 216, 216)" stroke-opacity="0.5" stroke-width="0.0125" stroke-linecap="round" stroke-linejoin="round"/><path d="M-11,-42.0625 -11,4.5625" fill="none" stroke="rgb(216, 216, 216)" stroke-opacity="0.5" stroke-width="0.0125" stroke-linecap="round" stroke-linejoin="round"/><path d="M-10,-42.0625 -10,4.5625" fill="none" stroke="rgb(216, 216, 216)" stroke-opacity="0.5" stroke-width="0.0125" stroke-linecap="round" stroke-linejoin="round"/><path d="M-9,-42.0625 -9,4.5625" fill="none" stroke="rgb(216, 216, 216)" stroke-opacity="0.5" stroke-width="0.0125" stroke-linecap="round" stroke-linejoin="round"/><path d="M-8,-42.0625 -8,4.5625" fill="none" stroke="rgb(216, 216, 216)" stroke-opacity="0.5" stroke-width="0.0125" stroke-linecap="round" stroke-linejoin="round"/><path d="M-7,-42.0625 -7,4.5625" fill="none" stroke="rgb(216, 216, 216)" stroke-opacity="0.5" stroke-width="0.0125" stroke-linecap="round" stroke-linejoin="round"/><path d="M-6,-42.0625 -6,4.5625" fill="none" stroke="rgb(216, 216, 216)" stroke-opacity="0.5" stroke-width="0.0125" stroke-linecap="round" stroke-linejoin="round"/><path d="M-5,-42.0625 -5,4.5625" fill="none" stroke="rgb(216, 216, 216)" stroke-opacity="0.5" stroke-width="0.0125" stroke-linecap="round" stroke-linejoin="round"/><path d="M-4,-42.0625 -4,4.5625" fill="none" stroke="rgb(216, 216, 216)" stroke-opacity="0.5" stroke-width="0.0125" stroke-linecap="round" stroke-linejoin="round"/><path d="M-3,-42.0625 -3,4.5625" fill="none" stroke="rgb(216, 216, 216)" stroke-opacity="0.5" stroke-width="0.0125" stroke-linecap="round" stroke-linejoin="round"/><path d="M-2,-42.0625 -2,4.5625" fill="none" stroke="rgb(216, 216, 216)" stroke-opacity="0.5" stroke-width="0.0125" stroke-linecap="round" stroke-linejoin="round"/><path d="M-1,-42.0625 -1,4.5625" fill="none" stroke="rgb(216, 216, 216)" stroke-opacity="0.5" stroke-width="0.0125" stroke-linecap="round" stroke-linejoin="round"/><path d="M0,-42.0625 0,4.5625" fill="none" stroke="rgb(216, 216, 216)" stroke-opacity="0.5" stroke-width="0.0125" stroke-linecap="round" stroke-linejoin="round"/><path d="M1,-42.0625 1,4.5625" fill="none" stroke="rgb(216, 216, 216)" stroke-opacity="0.5" stroke-width="0.0125" stroke-linecap="round" stroke-linejoin="round"/><path d="M2,-42.0625 2,4.5625" fill="none" stroke="rgb(216, 216, 216)" stroke-opacity="0.5" stroke-width="0.0125" stroke-linecap="round" stroke-linejoin="round"/><path d="M3,-42.0625 3,4.5625" fill="none" stroke="rgb(216, 216, 216)" stroke-opacity="0.5" stroke-width="0.0125" stroke-linecap="round" stroke-linejoin="round"/><path d="M4,-42.0625 4,4.5625" fill="none" stroke="rgb(216, 216, 216)" stroke-opacity="0.5" stroke-width="0.0125" stroke-linecap="round" stroke-linejoin="round"/><path d="M5,-42.0625 5,4.5625" fill="none" stroke="rgb(216, 216, 216)" stroke-opacity="0.5" stroke-width="0.0125" stroke-linecap="round" stroke-linejoin="round"/><path d="M6,-42.0625 6,4.5625" fill="none" stroke="rgb(216, 216, 216)" stroke-opacity="0.5" stroke-width="0.0125" stroke-linecap="round" stroke-linejoin="round"/><path d="M7,-42.0625 7,4.5625" fill="none" stroke="rgb(216, 216, 216)" stroke-opacity="0.5" stroke-width="0.0125" stroke-linecap="round" stroke-linejoin="round"/><path d="M8,-42.0625 8,4.5625" fill="none" stroke="rgb(216, 216, 216)" stroke-opacity="0.5" stroke-width="0.0125" stroke-linecap="round" stroke-linejoin="round"/><path d="M9,-42.0625 9,4.5625" fill="none" stroke="rgb(216, 216, 216)" stroke-opacity="0.5" stroke-width="0.0125" stroke-linecap="round" stroke-linejoin="round"/><path d="M10,-42.0625 10,4.5625" fill="none" stroke="rgb(216, 216, 216)" stroke-opacity="0.5" stroke-width="0.0125" stroke-linecap="round" stroke-linejoin="round"/><path d="M11,-42.0625 11,4.5625" fill="none" stroke="rgb(216, 216, 216)" stroke-opacity="0.5" stroke-width="0.0125" stroke-linecap="round" stroke-linejoin="round"/><path d="M12,-42.0625 12,4.5625" fill="none" stroke="rgb(216, 216, 216)" stroke-opacity="0.5" stroke-width="0.0125" stroke-linecap="round" stroke-linejoin="round"/><path d="M13,-42.0625 13,4.5625" fill="none" stroke="rgb(216, 216, 216)" stroke-opacity="0.5" stroke-width="0.0125" stroke-linecap="round" stroke-linejoin="round"/><path d="M14,-42.0625 14,4.5625" fill="none" stroke="rgb(216, 216, 216)" stroke-opacity="0.5" stroke-width="0.0125" stroke-linecap="round" stroke-linejoin="round"/><path d="M15,-42.0625 15,4.5625" fill="none" stroke="rgb(216, 216, 216)" stroke-opacity="0.5" stroke-width="0.0125" stroke-linecap="round" stroke-linejoin="round"/><path d="M16,-42.0625 16,4.5625" fill="none" stroke="rgb(216, 216, 216)" stroke-opacity="0.5" stroke-width="0.0125" stroke-linecap="round" stroke-linejoin="round"/><path d="M17,-42.0625 17,4.5625" fill="none" stroke="rgb(216, 216, 216)" stroke-opacity="0.5" stroke-width="0.0125" stroke-linecap="round" stroke-linejoin="round"/><path d="M18,-42.0625 18,4.5625" fill="none" stroke="rgb(216, 216, 216)" stroke-opacity="0.5" stroke-width="0.0125" stroke-linecap="round" stroke-linejoin="round"/><path d="M19,-42.0625 19,4.5625" fill="none" stroke="rgb(216, 216, 216)" stroke-opacity="0.5" stroke-width="0.0125" stroke-linecap="round" stroke-linejoin="round"/><path d="M20,-42.0625 20,4.5625" fill="none" stroke="rgb(216, 216, 216)" stroke-opacity="0.5" stroke-width="0.0125" stroke-linecap="round" stroke-linejoin="round"/><path d="M21,-42.0625 21,4.5625" fill="none" stroke="rgb(216, 216, 216)" stroke-opacity="0.5" stroke-width="0.0125" stroke-linecap="round" stroke-linejoin="round"/><path d="M22,-42.0625 22,4.5625" fill="none" stroke="rgb(216, 216, 216)" stroke-opacity="0.5" stroke-width="0.0125" stroke-linecap="round" stroke-linejoin="round"/><path d="M23,-42.0625 23,4.5625" fill="none" stroke="rgb(216, 216, 216)" stroke-opacity="0.5" stroke-width="0.0125" stroke-linecap="round" stroke-linejoin="round"/><path d="M24,-42.0625 24,4.5625" fill="none" stroke="rgb(216, 216, 216)" stroke-opacity="0.5" stroke-width="0.0125" stroke-linecap="round" stroke-linejoin="round"/><path d="M25,-42.0625 25,4.5625" fill="none" stroke="rgb(216, 216, 216)" stroke-opacity="0.5" stroke-width="0.0125" stroke-linecap="round" stroke-linejoin="round"/><path d="M26,-42.0625 26,4.5625" fill="none" stroke="rgb(216, 216, 216)" stroke-opacity="0.5" stroke-width="0.0125" stroke-linecap="round" stroke-linejoin="round"/><path d="M27,-42.0625 27,4.5625" fill="none" stroke="rgb(216, 216, 216)" stroke-opacity="0.5" stroke-width="0.0125" stroke-linecap="round" stroke-linejoin="round"/><path d="M28,-42.0625 28,4.5625" fill="none" stroke="rgb(216, 216, 216)" stroke-opacity="0.5" stroke-width="0.0125" stroke-linecap="round" stroke-linejoin="round"/><path d="M29,-42.0625 29,4.5625" fill="none" stroke="rgb(216, 216, 216)" stroke-opacity="0.5" stroke-width="0.0125" stroke-linecap="round" stroke-linejoin="round"/><path d="M30,-42.0625 30,4.5625" fill="none" stroke="rgb(216, 216, 216)" stroke-opacity="0.5" stroke-width="0.0125" stroke-linecap="round" stroke-linejoin="round"/><path d="M31,-42.0625 31,4.5625" fill="none" stroke="rgb(216, 216, 216)" stroke-opacity="0.5" stroke-width="0.0125" stroke-linecap="round" stroke-linejoin="round"/><path d="M32,-42.0625 32,4.5625" fill="none" stroke="rgb(216, 216, 216)" stroke-opacity="0.5" stroke-width="0.0125" stroke-linecap="round" stroke-linejoin="round"/><path d="M33,-42.0625 33,4.5625" fill="none" stroke="rgb(216, 216, 216)" stroke-opacity="0.5" stroke-width="0.0125" stroke-linecap="round" stroke-linejoin="round"/><path d="M34,-42.0625 34,4.5625" fill="none" stroke="rgb(216, 216, 216)" stroke-opacity="0.5" stroke-width="0.0125" stroke-linecap="round" stroke-linejoin="round"/><path d="M35,-42.0625 35,4.5625" fill="none" stroke="rgb(216, 216, 216)" stroke-opacity="0.5" stroke-width="0.0125" stroke-linecap="round" stroke-linejoin="round"/><path d="M36,-42.0625 36,4.5625" fill="none" stroke="rgb(216, 216, 216)" stroke-opacity="0.5" stroke-width="0.0125" stroke-linecap="round" stroke-linejoin="round"/><path d="M37,-42.0625 37,4.5625" fill="none" stroke="rgb(216, 216, 216)" stroke-opacity="0.5" stroke-width="0.0125" stroke-linecap="round" stroke-linejoin="round"/><path d="M38,-42.0625 38,4.5625" fill="none" stroke="rgb(216, 216, 216)" stroke-opacity="0.5" stroke-width="0.0125" stroke-linecap="round" stroke-linejoin="round"/></g><g layer="Grid_minor"><path d="M-40.0625,-40 38.1875,-40" fill="none" stroke="#7f7f7f" stroke-opacity="0.2" stroke-width="0.025" stroke-dasharray="0.1, 0.2" stroke-linecap="round" stroke-linejoin="round"/><path d="M-40.0625,-35 38.1875,-35" fill="none" stroke="#7f7f7f" stroke-opacity="0.2" stroke-width="0.025" stroke-dasharray="0.1, 0.2" stroke-linecap="round" stroke-linejoin="round"/><path d="M-40.0625,-30 38.1875,-30" fill="none" stroke="#7f7f7f" stroke-opacity="0.2" stroke-width="0.025" stroke-dasharray="0.1, 0.2" stroke-linecap="round" stroke-linejoin="round"/><path d="M-40.0625,-25 38.1875,-25" fill="none" stroke="#7f7f7f" stroke-opacity="0.2" stroke-width="0.025" stroke-dasharray="0.1, 0.2" stroke-linecap="round" stroke-linejoin="round"/><path d="M-40.0625,-20 38.1875,-20" fill="none" stroke="#7f7f7f" stroke-opacity="0.2" stroke-width="0.025" stroke-dasharray="0.1, 0.2" stroke-linecap="round" stroke-linejoin="round"/><path d="M-40.0625,-15 38.1875,-15" fill="none" stroke="#7f7f7f" stroke-opacity="0.2" stroke-width="0.025" stroke-dasharray="0.1, 0.2" stroke-linecap="round" stroke-linejoin="round"/><path d="M-40.0625,-10 38.1875,-10" fill="none" stroke="#7f7f7f" stroke-opacity="0.2" stroke-width="0.025" stroke-dasharray="0.1, 0.2" stroke-linecap="round" stroke-linejoin="round"/><path d="M-40.0625,-5 38.1875,-5" fill="none" stroke="#7f7f7f" stroke-opacity="0.2" stroke-width="0.025" stroke-dasharray="0.1, 0.2" stroke-linecap="round" stroke-linejoin="round"/><path d="M-40.0625,0 38.1875,0" fill="none" stroke="#7f7f7f" stroke-opacity="0.2" stroke-width="0.025" stroke-dasharray="0.1, 0.2" stroke-linecap="round" stroke-linejoin="round"/><path d="M-40,-42.0625 -40,4.5625" fill="none" stroke="#7f7f7f" stroke-opacity="0.2" stroke-width="0.025" stroke-dasharray="0.1, 0.2" stroke-linecap="round" stroke-linejoin="round"/><path d="M-35,-42.0625 -35,4.5625" fill="none" stroke="#7f7f7f" stroke-opacity="0.2" stroke-width="0.025" stroke-dasharray="0.1, 0.2" stroke-linecap="round" stroke-linejoin="round"/><path d="M-30,-42.0625 -30,4.5625" fill="none" stroke="#7f7f7f" stroke-opacity="0.2" stroke-width="0.025" stroke-dasharray="0.1, 0.2" stroke-linecap="round" stroke-linejoin="round"/><path d="M-25,-42.0625 -25,4.5625" fill="none" stroke="#7f7f7f" stroke-opacity="0.2" stroke-width="0.025" stroke-dasharray="0.1, 0.2" stroke-linecap="round" stroke-linejoin="round"/><path d="M-20,-42.0625 -20,4.5625" fill="none" stroke="#7f7f7f" stroke-opacity="0.2" stroke-width="0.025" stroke-dasharray="0.1, 0.2" stroke-linecap="round" stroke-linejoin="round"/><path d="M-15,-42.0625 -15,4.5625" fill="none" stroke="#7f7f7f" stroke-opacity="0.2" stroke-width="0.025" stroke-dasharray="0.1, 0.2" stroke-linecap="round" stroke-linejoin="round"/><path d="M-10,-42.0625 -10,4.5625" fill="none" stroke="#7f7f7f" stroke-opacity="0.2" stroke-width="0.025" stroke-dasharray="0.1, 0.2" stroke-linecap="round" stroke-linejoin="round"/><path d="M-5,-42.0625 -5,4.5625" fill="none" stroke="#7f7f7f" stroke-opacity="0.2" stroke-width="0.025" stroke-dasharray="0.1, 0.2" stroke-linecap="round" stroke-linejoin="round"/><path d="M0,-42.0625 0,4.5625" fill="none" stroke="#7f7f7f" stroke-opacity="0.2" stroke-width="0.025" stroke-dasharray="0.1, 0.2" stroke-linecap="round" stroke-linejoin="round"/><path d="M5,-42.0625 5,4.5625" fill="none" stroke="#7f7f7f" stroke-opacity="0.2" stroke-width="0.025" stroke-dasharray="0.1, 0.2" stroke-linecap="round" stroke-linejoin="round"/><path d="M10,-42.0625 10,4.5625" fill="none" stroke="#7f7f7f" stroke-opacity="0.2" stroke-width="0.025" stroke-dasharray="0.1, 0.2" stroke-linecap="round" stroke-linejoin="round"/><path d="M15,-42.0625 15,4.5625" fill="none" stroke="#7f7f7f" stroke-opacity="0.2" stroke-width="0.025" stroke-dasharray="0.1, 0.2" stroke-linecap="round" stroke-linejoin="round"/><path d="M20,-42.0625 20,4.5625" fill="none" stroke="#7f7f7f" stroke-opacity="0.2" stroke-width="0.025" stroke-dasharray="0.1, 0.2" stroke-linecap="round" stroke-linejoin="round"/><path d="M25,-42.0625 25,4.5625" fill="none" stroke="#7f7f7f" stroke-opacity="0.2" stroke-width="0.025" stroke-dasharray="0.1, 0.2" stroke-linecap="round" stroke-linejoin="round"/><path d="M30,-42.0625 30,4.5625" fill="none" stroke="#7f7f7f" stroke-opacity="0.2" stroke-width="0.025" stroke-dasharray="0.1, 0.2" stroke-linecap="round" stroke-linejoin="round"/><path d="M35,-42.0625 35,4.5625" fill="none" stroke="#7f7f7f" stroke-opacity="0.2" stroke-width="0.025" stroke-dasharray="0.1, 0.2" stroke-linecap="round" stroke-linejoin="round"/></g><g layer="Grid_major"><path d="M-40.0625,-40 38.1875,-40" fill="none" stroke="#0f0f0f" stroke-opacity="0.2" stroke-width="0.05" stroke-linecap="round" stroke-linejoin="round"/><path d="M-40.0625,-30 38.1875,-30" fill="none" stroke="#0f0f0f" stroke-opacity="0.2" stroke-width="0.05" stroke-linecap="round" stroke-linejoin="round"/><path d="M-40.0625,-20 38.1875,-20" fill="none" stroke="#0f0f0f" stroke-opacity="0.2" stroke-width="0.05" stroke-linecap="round" stroke-linejoin="round"/><path d="M-40.0625,-10 38.1875,-10" fill="none" stroke="#0f0f0f" stroke-opacity="0.2" stroke-width="0.05" stroke-linecap="round" stroke-linejoin="round"/><path d="M-40.0625,0 38.1875,0" fill="none" stroke="#0f0f0f" stroke-opacity="0.2" stroke-width="0.05" stroke-linecap="round" stroke-linejoin="round"/><path d="M-40,-42.0625 -40,4.5625" fill="none" stroke="#0f0f0f" stroke-opacity="0.2" stroke-width="0.05" stroke-linecap="round" stroke-linejoin="round"/><path d="M-30,-42.0625 -30,4.5625" fill="none" stroke="#0f0f0f" stroke-opacity="0.2" stroke-width="0.05" stroke-linecap="round" stroke-linejoin="round"/><path d="M-20,-42.0625 -20,4.5625" fill="none" stroke="#0f0f0f" stroke-opacity="0.2" stroke-width="0.05" stroke-linecap="round" stroke-linejoin="round"/><path d="M-10,-42.0625 -10,4.5625" fill="none" stroke="#0f0f0f" stroke-opacity="0.2" stroke-width="0.05" stroke-linecap="round" stroke-linejoin="round"/><path d="M0,-42.0625 0,4.5625" fill="none" stroke="#0f0f0f" stroke-opacity="0.2" stroke-width="0.05" stroke-linecap="round" stroke-linejoin="round"/><path d="M10,-42.0625 10,4.5625" fill="none" stroke="#0f0f0f" stroke-opacity="0.2" stroke-width="0.05" stroke-linecap="round" stroke-linejoin="round"/><path d="M20,-42.0625 20,4.5625" fill="none" stroke="#0f0f0f" stroke-opacity="0.2" stroke-width="0.05" stroke-linecap="round" stroke-linejoin="round"/><path d="M30,-42.0625 30,4.5625" fill="none" stroke="#0f0f0f" stroke-opacity="0.2" stroke-width="0.05" stroke-linecap="round" stroke-linejoin="round"/></g></g></svg>