<?xml version="1.0" encoding="UTF-8"?><!DOCTYPE svg PUBLIC "-//W3C//DTD SVG 1.1//EN" "http://www.w3.org/Graphics/SVG/1.1/DTD/svg11.dtd"><svg xmlns="http://www.w3.org/2000/svg" xmlns:xlink="http://www.w3.org/1999/xlink" version="1.1" width="341px" height="225px" viewBox="-4.5 -128.5 341 225"><defs/><g><g id="cell-m6T33e_Z8T_IFA4XhIIA-24" layer="Symbol"><path d="M15.34-96.32L322-128" fill="none" stroke="rgb(0, 0, 0)" stroke-miterlimit="10" pointer-events="stroke" stroke-width="0.25" stroke-linecap="round" stroke-linejoin="round"/></g><g id="cell-m6T33e_Z8T_IFA4XhIIA-23" layer="Symbol"><path d="M319.8-127.8C325.23-128.79 330.67-126.05 333.69-120.8 336.72-115.55 336.77-108.75999999999999 333.83-103.44999999999999 330.89-98.14 325.51-95.28 320.06-96.14999999999999" fill="none" stroke="rgb(0, 0, 0)" stroke-miterlimit="10" pointer-events="all" stroke-width="0.25" stroke-linecap="round" stroke-linejoin="round"/></g><g id="cell-m6T33e_Z8T_IFA4XhIIA-22" layer="Symbol"><path d="M14-128L320-96" fill="none" stroke="rgb(0, 0, 0)" stroke-miterlimit="10" pointer-events="stroke" stroke-width="0.25" stroke-linecap="round" stroke-linejoin="round"/></g><g id="cell-m6T33e_Z8T_IFA4XhIIA-21" layer="Symbol"><path d="M16.2-96.2C10.77-95.21000000000001 5.33-97.95 2.3099999999999996-103.2-0.7200000000000002-108.45-0.77-115.24 2.17-120.55 5.109999999999999-125.86 10.49-128.72 15.940000000000001-127.85" fill="none" stroke="rgb(0, 0, 0)" stroke-miterlimit="10" pointer-events="all" stroke-width="0.25" stroke-linecap="round" stroke-linejoin="round"/></g><g id="cell-m6T33e_Z8T_IFA4XhIIA-20" layer="Symbol"><path fill="none" stroke="rgb(0, 0, 0)" pointer-events="all" d="M0-64L336-64 336 64 0 64z" stroke-width="0.25" stroke-linecap="round" stroke-linejoin="round"/></g><g id="cell-MAk1VC-pqEa6ilZfhNB5-16" content="&lt;object label=&quot;%LabelLines%&amp;amp;nbsp; &amp;amp;nbsp; &amp;amp;nbsp; &amp;amp;nbsp; &amp;amp;nbsp; &amp;amp;nbsp;%LabelIndex%&quot; placeholders=&quot;1&quot; LabelLines=&quot;1&quot; LabelIndex=&quot;A&quot;/&gt;" data-label="%LabelLines%&amp;nbsp; &amp;nbsp; &amp;nbsp; &amp;nbsp; &amp;nbsp; &amp;nbsp;%LabelIndex%" data-placeholders="1" data-LabelLines="1" data-LabelIndex="A" layer="Label"><path fill="none" stroke="#ff0000" pointer-events="all" d="M128 80L208 80 208 96 128 96z" stroke-linecap="round" stroke-linejoin="round"/><g><text x="134" y="219" fill="#FF0000" font-family="Helvetica" font-size="10px" transform="translate(-4 -128) translate(-0.5 -0.5)" stroke-linecap="round" stroke-linejoin="round">1           A</text></g></g><g id="cell-pEtjtcBWMfalJ67Uv4dw-28" content="&lt;object label=&quot;origo&quot;/&gt;" data-label="origo" layer="Origo"><ellipse cx="0" cy="0" rx="0.25" ry="0.25" fill="none" stroke="#ff0000" vector-effect="non-scaling-stroke"/></g></g></svg>