<?xml version="1.0" encoding="UTF-8"?><!DOCTYPE svg PUBLIC "-//W3C//DTD SVG 1.1//EN" "http://www.w3.org/Graphics/SVG/1.1/DTD/svg11.dtd"><svg xmlns="http://www.w3.org/2000/svg" xmlns:xlink="http://www.w3.org/1999/xlink" version="1.1" width="341px" height="225px" viewBox="-4.5 -64.5 341 225"><defs/><g><g id="cell-m6T33e_Z8T_IFA4XhIIA-24" layer="Symbol"><path d="M15.34 127.68L322 96" fill="none" stroke="rgb(0, 0, 0)" stroke-miterlimit="10" pointer-events="stroke" stroke-width="0.25" stroke-linecap="round" stroke-linejoin="round"/></g><g id="cell-m6T33e_Z8T_IFA4XhIIA-23" layer="Symbol"><path d="M319.8 96.19999999999996C325.23 95.20999999999998 330.67 97.94999999999996 333.69 103.19999999999996 336.72 108.44999999999996 336.77 115.23999999999998 333.83 120.54999999999998 330.89 125.85999999999999 325.51 128.71999999999997 320.06 127.84999999999997" fill="none" stroke="rgb(0, 0, 0)" stroke-miterlimit="10" pointer-events="all" stroke-width="0.25" stroke-linecap="round" stroke-linejoin="round"/></g><g id="cell-m6T33e_Z8T_IFA4XhIIA-22" layer="Symbol"><path d="M14 96L320 128" fill="none" stroke="rgb(0, 0, 0)" stroke-miterlimit="10" pointer-events="stroke" stroke-width="0.25" stroke-linecap="round" stroke-linejoin="round"/></g><g id="cell-m6T33e_Z8T_IFA4XhIIA-21" layer="Symbol"><path d="M16.2 127.80000000000001C10.77 128.79 5.33 126.05000000000001 2.3099999999999996 120.80000000000001-0.7200000000000002 115.55000000000001-0.77 108.75999999999999 2.17 103.44999999999999 5.109999999999999 98.13999999999999 10.49 95.28 15.940000000000001 96.15" fill="none" stroke="rgb(0, 0, 0)" stroke-miterlimit="10" pointer-events="all" stroke-width="0.25" stroke-linecap="round" stroke-linejoin="round"/></g><g id="cell-m6T33e_Z8T_IFA4XhIIA-20" layer="Symbol"><path fill="none" stroke="rgb(0, 0, 0)" pointer-events="all" d="M0-64L336-64 336 64 0 64z" stroke-width="0.25" stroke-linecap="round" stroke-linejoin="round"/></g><g id="cell-MAk1VC-pqEa6ilZfhNB5-16" content="&lt;object label=&quot;%LabelLines%&amp;amp;nbsp; &amp;amp;nbsp; &amp;amp;nbsp; &amp;amp;nbsp; &amp;amp;nbsp; &amp;amp;nbsp;%LabelIndex%&quot; placeholders=&quot;1&quot; LabelLines=&quot;1&quot; LabelIndex=&quot;A&quot;/&gt;" data-label="%LabelLines%&amp;nbsp; &amp;nbsp; &amp;nbsp; &amp;nbsp; &amp;nbsp; &amp;nbsp;%LabelIndex%" data-placeholders="1" data-LabelLines="1" data-LabelIndex="A" layer="Label"><path fill="none" stroke="#ff0000" pointer-events="all" d="M128 144L208 144 208 160 128 160z" stroke-linecap="round" stroke-linejoin="round"/><g><text x="134" y="219" fill="#FF0000" font-family="Helvetica" font-size="10px" transform="translate(-4 -64) translate(-0.5 -0.5)" stroke-linecap="round" stroke-linejoin="round">1           A</text></g></g><g id="cell-pEtjtcBWMfalJ67Uv4dw-28" content="&lt;object label=&quot;origo&quot;/&gt;" data-label="origo" layer="Origo"><ellipse cx="0" cy="0" rx="0.25" ry="0.25" fill="none" stroke="#ff0000" vector-effect="non-scaling-stroke"/></g></g></svg>