<?xml version="1.0" encoding="UTF-8"?><!DOCTYPE svg PUBLIC "-//W3C//DTD SVG 1.1//EN" "http://www.w3.org/Graphics/SVG/1.1/DTD/svg11.dtd"><svg xmlns="http://www.w3.org/2000/svg" xmlns:xlink="http://www.w3.org/1999/xlink" version="1.1" width="323.23mm" height="544.722mm" viewBox="-0.12518 -0.12518 76.3596 128.685"><defs vector-effect="non-scaling-stroke"/><g><g id="cell-Cs6CF5RZ0sd9oseQYqX_-2" layer="Symbol"><path fill="none" stroke="rgb(0, 0, 0)" pointer-events="all" d="M29.294527369737626 56.33081495761871L46.56680703163147 56.33081495761871 46.56680703163147 61.33799850940704 29.294527369737626 61.33799850940704z" stroke-width="0.25" stroke-linecap="round" stroke-linejoin="round"/></g><g id="cell-Cs6CF5RZ0sd9oseQYqX_-1" layer="Symbol"><path fill="none" stroke="rgb(0, 0, 0)" pointer-events="all" d="M29.294527369737626 103.17301708459854L46.56680703163147 103.17301708459854 46.56680703163147 108.18020063638687 29.294527369737626 108.18020063638687z" stroke-width="0.25" stroke-linecap="round" stroke-linejoin="round"/></g><g id="cell-Cs6CF5RZ0sd9oseQYqX_-3" layer="Symbol"><path fill="none" stroke="rgb(0, 0, 0)" pointer-events="all" d="M29.294527369737626 2.7539509534835815L46.56680703163147 2.7539509534835815 46.56680703163147 9.012930393218994 29.294527369737626 9.012930393218994z" stroke-width="0.25" stroke-linecap="round" stroke-linejoin="round"/></g><g id="cell-Cs6CF5RZ0sd9oseQYqX_-0" layer="Symbol"><path fill="none" stroke="rgb(0, 0, 0)" pointer-events="all" d="M29.294527369737626 25.536636114120483L46.56680703163147 25.536636114120483 46.56680703163147 30.543819665908813 29.294527369737626 30.543819665908813z" stroke-width="0.25" stroke-linecap="round" stroke-linejoin="round"/></g><g id="cell-sn5sNQxoWfRkQCIoUtF5-159" layer="Symbol"><path fill="none" stroke="rgb(0, 0, 0)" pointer-events="all" d="M66.59554123878479 111.15947484970093L75.8588308095932 111.15947484970093 75.8588308095932 115.16522169113159 66.59554123878479 115.16522169113159z" stroke-width="0.25" stroke-linecap="round" stroke-linejoin="round"/></g><g id="cell-sn5sNQxoWfRkQCIoUtF5-144" layer="Symbol"><path fill="none" stroke="rgb(0, 0, 0)" pointer-events="all" d="M29.294527369737626 118.16953182220459L46.56680703163147 118.16953182220459 46.56680703163147 125.42994797229767 29.294527369737626 125.42994797229767z" stroke-width="0.25" stroke-linecap="round" stroke-linejoin="round"/></g><g id="cell-sn5sNQxoWfRkQCIoUtF5-145" layer="Symbol"><path fill="none" stroke="rgb(0, 0, 0)" pointer-events="all" d="M27.291653949022294 125.42994797229767L48.57218404412269 125.42994797229767 48.57218404412269 128.2089348435402 27.291653949022294 128.2089348435402z" stroke-width="0.25" stroke-linecap="round" stroke-linejoin="round"/></g><g id="cell-sn5sNQxoWfRkQCIoUtF5-141" layer="Symbol"><path fill="none" stroke="rgb(0, 0, 0)" pointer-events="all" d="M27.291653949022294 100.39403021335602L48.57218404412269 100.39403021335602 48.57218404412269 103.17301708459854 27.291653949022294 103.17301708459854z" stroke-width="0.25" stroke-linecap="round" stroke-linejoin="round"/></g><g id="cell-sn5sNQxoWfRkQCIoUtF5-139" layer="Symbol"><path fill="none" stroke="rgb(0, 0, 0)" pointer-events="all" d="M27.291653949022294 61.33799850940704L48.57218404412269 61.33799850940704 48.57218404412269 64.11698538064957 27.291653949022294 64.11698538064957z" stroke-width="0.25" stroke-linecap="round" stroke-linejoin="round"/></g><g id="cell-sn5sNQxoWfRkQCIoUtF5-135" layer="Symbol"><path fill="none" stroke="rgb(0, 0, 0)" pointer-events="all" d="M27.291653949022294 30.543819665908813L48.57218404412269 30.543819665908813 48.57218404412269 33.32280653715134 27.291653949022294 33.32280653715134z" stroke-width="0.25" stroke-linecap="round" stroke-linejoin="round"/></g><g id="cell-sn5sNQxoWfRkQCIoUtF5-133" layer="Symbol"><path fill="none" stroke="rgb(0, 0, 0)" pointer-events="all" d="M27.291653949022294 0L48.57218404412269 0 48.57218404412269 2.778986871242523 27.291653949022294 2.778986871242523z" stroke-width="0.25" stroke-linecap="round" stroke-linejoin="round"/></g><g id="cell-sn5sNQxoWfRkQCIoUtF5-140" layer="Symbol"><path fill="none" stroke="rgb(0, 0, 0)" pointer-events="all" d="M29.06419692635536 64.11698538064957L46.797137475013734 64.11698538064957 46.797137475013734 100.41906613111496 29.06419692635536 100.41906613111496z" stroke-width="0.25" stroke-linecap="round" stroke-linejoin="round"/></g><g id="cell-sn5sNQxoWfRkQCIoUtF5-136" layer="Symbol"><path fill="none" stroke="rgb(0, 0, 0)" pointer-events="all" d="M29.294527369737626 33.32280653715134L46.56680703163147 33.32280653715134 46.56680703163147 38.32999008893967 29.294527369737626 38.32999008893967z" stroke-width="0.25" stroke-linecap="round" stroke-linejoin="round"/></g><g id="cell-sn5sNQxoWfRkQCIoUtF5-154" layer="Symbol"><path fill="none" stroke="rgb(0, 0, 0)" pointer-events="all" d="M-0.017525142431259157 50.0718355178833L9.26328957080841 50.0718355178833 9.26328957080841 54.077582359313965-0.017525142431259157 54.077582359313965z" stroke-width="0.25" stroke-linecap="round" stroke-linejoin="round"/></g><g id="cell-sn5sNQxoWfRkQCIoUtF5-152" layer="Symbol"><path fill="none" stroke="rgb(0, 0, 0)" pointer-events="all" d="M-0.017525142431259157 40.30782759189606L9.26328957080841 40.30782759189606 9.26328957080841 44.31357443332672-0.017525142431259157 44.31357443332672z" stroke-width="0.25" stroke-linecap="round" stroke-linejoin="round"/></g><g id="cell-sn5sNQxoWfRkQCIoUtF5-151" layer="Symbol"><path fill="none" stroke="rgb(0, 0, 0)" pointer-events="all" d="M66.59554123878479 50.0718355178833L75.8588308095932 50.0718355178833 75.8588308095932 54.077582359313965 66.59554123878479 54.077582359313965z" stroke-width="0.25" stroke-linecap="round" stroke-linejoin="round"/></g><g id="cell-sn5sNQxoWfRkQCIoUtF5-146" layer="Symbol"><path fill="none" stroke="rgb(0, 0, 0)" pointer-events="all" d="M66.59554123878479 40.30782759189606L75.8588308095932 40.30782759189606 75.8588308095932 44.31357443332672 66.59554123878479 44.31357443332672z" stroke-width="0.25" stroke-linecap="round" stroke-linejoin="round"/></g><g id="cell-sn5sNQxoWfRkQCIoUtF5-143" layer="Symbol"><path fill="none" stroke="rgb(0, 0, 0)" pointer-events="all" d="M9.265793162584304 108.15516471862793L66.59804483056068 108.15516471862793 66.59804483056068 118.16953182220459 9.265793162584304 118.16953182220459z" stroke-width="0.25" stroke-linecap="round" stroke-linejoin="round"/></g><g id="cell-sn5sNQxoWfRkQCIoUtF5-131" layer="Symbol"><path d="M13.14636041522026 16.774064898490906L20.53445974588394 9.012930393218994 55.32937824726105 9.012930393218994 62.717477577924726 16.774064898490906Z" fill="none" stroke="rgb(0, 0, 0)" stroke-miterlimit="10" pointer-events="all" stroke-width="0.25" stroke-linecap="round" stroke-linejoin="round"/></g><g id="cell-sn5sNQxoWfRkQCIoUtF5-137" layer="Symbol"><path fill="none" stroke="rgb(0, 0, 0)" pointer-events="all" d="M9.265793162584304 38.304954171180725L66.59804483056068 38.304954171180725 66.59804483056068 56.33081495761871 9.265793162584304 56.33081495761871z" stroke-width="0.25" stroke-linecap="round" stroke-linejoin="round"/></g><g id="cell-sn5sNQxoWfRkQCIoUtF5-130" layer="Symbol"><path fill="none" stroke="rgb(0, 0, 0)" pointer-events="all" d="M13.14636041522026 16.774064898490906L62.717477577924726 16.774064898490906 62.717477577924726 25.536636114120483 13.14636041522026 25.536636114120483z" stroke-width="0.25" stroke-linecap="round" stroke-linejoin="round"/></g><g id="cell-sn5sNQxoWfRkQCIoUtF5-160" layer="Symbol"><path fill="none" stroke="rgb(0, 0, 0)" pointer-events="all" d="M0 111.15947484970093L9.26328957080841 111.15947484970093 9.26328957080841 115.16522169113159 0 115.16522169113159z" stroke-width="0.25" stroke-linecap="round" stroke-linejoin="round"/></g></g></svg>